<?xml version="1.0" encoding="utf-8"?>
<!-- Generator: Adobe Illustrator 16.0.4, SVG Export Plug-In . SVG Version: 6.00 Build 0)  -->
<!DOCTYPE svg PUBLIC "-//W3C//DTD SVG 1.1//EN" "http://www.w3.org/Graphics/SVG/1.1/DTD/svg11.dtd">
<svg version="1.1" id="Layer_1" xmlns="http://www.w3.org/2000/svg" xmlns:xlink="http://www.w3.org/1999/xlink" x="0px" y="0px"
	 width="531.508px" height="447.311px" viewBox="0 0 531.508 447.311" enable-background="new 0 0 531.508 447.311"
	 xml:space="preserve">
<polygon fill="#00A5A8" points="244.392,0 140.827,181.479 37.748,0 0,0 0,338.762 35.328,338.762 35.328,65.816 139.86,246.812 
	141.312,246.812 245.844,65.816 245.844,338.762 282.14,338.762 282.14,0 "/>
<g>
	<g>
		<g>
			<defs>
				<rect id="SVGID_1_" x="0" y="0" width="531.508" height="447.311"/>
			</defs>
			<clipPath id="SVGID_2_">
				<use xlink:href="#SVGID_1_"  overflow="visible"/>
			</clipPath>
			<path clip-path="url(#SVGID_2_)" fill="#FF5E23" d="M488.141,338.762L273.564,0.001h38.828l219.114,338.761l-43.07,0.16
				c0,0-178.68-172.819-275.468-88.129c-109.64,95.936,8.331,221.059,130.58,185.083c0,0-181.479,60.49-205.677-96.789
				c-16.96-110.246,139.461-221.378,313.543-76.195l37.316,76.188"/>
		</g>
	</g>
</g>
</svg>
